<svg width="53" height="53" viewBox="0 0 53 53" fill="none" xmlns="http://www.w3.org/2000/svg">
<g clip-path="url(#clip0_101_2)">
<path d="M26.5 -4.57764e-05C19.5482 -4.57764e-05 13.3716 6.66059 13.3716 13.6146C13.3716 23.9541 23.8125 24.0244 26.5 39.75C29.1876 24.0244 40.1147 22.9313 40.1147 12.5919C40.1147 5.63783 33.4541 -4.57764e-05 26.5 -4.57764e-05ZM26.5 26.0137C24.0598 26.0137 13.3716 16.0548 13.3716 13.6146C13.3716 11.1744 24.0598 -4.57764e-05 26.5 -4.57764e-05C28.9402 -4.57764e-05 39.4194 8.75225 40.1147 12.5919C38.1887 -4.57764e-05 28.9402 26.0137 26.5 26.0137Z" fill="#FF662B"/>
<g clip-path="url(#clip1_101_2)">
<path d="M28.5868 13.25C28.5868 14.4679 27.5963 15.4583 26.3784 15.4583C25.1605 15.4583 24.1701 14.4679 24.1701 13.25C24.1701 12.0321 25.1605 11.0417 26.3784 11.0417C27.5963 11.0417 28.5868 12.0321 28.5868 13.25ZM39.6284 13.25C39.6284 20.5673 33.6957 26.5 26.3784 26.5C19.0611 26.5 13.1284 20.5673 13.1284 13.25C13.1284 5.93269 19.0611 0 26.3784 0C33.6957 0 39.6284 5.93269 39.6284 13.25ZM22.5801 18.6737C21.9485 18.2309 21.3986 17.681 20.9559 17.0494L16.8804 18.8614C17.8289 20.4624 19.1671 21.8007 20.7682 22.7491L22.5801 18.6737V18.6737ZM30.7951 13.25C30.7951 10.8109 28.8175 8.83333 26.3784 8.83333C23.9393 8.83333 21.9618 10.8109 21.9618 13.25C21.9618 15.6891 23.9393 17.6667 26.3784 17.6667C28.8175 17.6667 30.7951 15.6891 30.7951 13.25ZM35.8776 7.64083C34.9291 6.03869 33.5908 4.70044 31.9887 3.75196L30.1768 7.82744C30.8083 8.27021 31.3582 8.82008 31.8021 9.45167L35.8776 7.64083V7.64083Z" fill="#FF662B"/>
</g>
</g>
<defs>
<clipPath id="clip0_101_2">
<rect width="53" height="53" fill="white"/>
</clipPath>
<clipPath id="clip1_101_2">
<rect width="26.5" height="26.5" fill="white" transform="translate(13.1284)"/>
</clipPath>
</defs>
</svg>
